<?xml version="1.0" encoding="UTF-8" standalone="no"?>
<!-- Created with Inkscape (http://www.inkscape.org/) -->

<svg
   xmlns:dc="http://purl.org/dc/elements/1.1/"
   xmlns:cc="http://creativecommons.org/ns#"
   xmlns:rdf="http://www.w3.org/1999/02/22-rdf-syntax-ns#"
   xmlns:svg="http://www.w3.org/2000/svg"
   xmlns="http://www.w3.org/2000/svg"
   xmlns:sodipodi="http://sodipodi.sourceforge.net/DTD/sodipodi-0.dtd"
   xmlns:inkscape="http://www.inkscape.org/namespaces/inkscape"
   width="744.09448819"
   height="1052.3622047"
   id="svg2"
   sodipodi:version="0.32"
   inkscape:version="0.47pre4 r22446"
   sodipodi:docname="prl-logotypes.svg"
   inkscape:output_extension="org.inkscape.output.svg.inkscape"
   version="1.1">
  <defs
     id="defs4">
    <inkscape:perspective
       sodipodi:type="inkscape:persp3d"
       inkscape:vp_x="0 : 526.18109 : 1"
       inkscape:vp_y="0 : 1000 : 0"
       inkscape:vp_z="744.09448 : 526.18109 : 1"
       inkscape:persp3d-origin="372.04724 : 350.78739 : 1"
       id="perspective10" />
    <inkscape:perspective
       id="perspective7172"
       inkscape:persp3d-origin="0.5 : 0.33333333 : 1"
       inkscape:vp_z="1 : 0.5 : 1"
       inkscape:vp_y="0 : 1000 : 0"
       inkscape:vp_x="0 : 0.5 : 1"
       sodipodi:type="inkscape:persp3d" />
  </defs>
  <sodipodi:namedview
     id="base"
     pagecolor="#ffffff"
     bordercolor="#666666"
     borderopacity="1.0"
     gridtolerance="10000"
     guidetolerance="10"
     objecttolerance="10"
     inkscape:pageopacity="0.0"
     inkscape:pageshadow="2"
     inkscape:zoom="1.4"
     inkscape:cx="341.4308"
     inkscape:cy="268.00075"
     inkscape:document-units="px"
     inkscape:current-layer="layer1"
     showgrid="false"
     inkscape:window-width="1280"
     inkscape:window-height="848"
     inkscape:window-x="0"
     inkscape:window-y="25"
     inkscape:window-maximized="0" />
  <metadata
     id="metadata7">
    <rdf:RDF>
      <cc:Work
         rdf:about="">
        <dc:format>image/svg+xml</dc:format>
        <dc:type
           rdf:resource="http://purl.org/dc/dcmitype/StillImage" />
        <dc:title></dc:title>
      </cc:Work>
    </rdf:RDF>
  </metadata>
  <g
     inkscape:label="Layer 1"
     inkscape:groupmode="layer"
     id="layer1">
    <path
       style="font-size:144px;font-style:normal;font-variant:normal;font-weight:bold;font-stretch:normal;fill:#ffffff;fill-opacity:1;stroke:#000000;stroke-width:1px;stroke-linecap:butt;stroke-linejoin:miter;stroke-opacity:1;font-family:Ouhod;-inkscape-font-specification:Ouhod Bold"
       d="M 672.84009,429.86684 L 672.84009,516.82684 L 723.08009,516.82684 L 723.08009,534.90684 L 651.24009,534.90684 L 651.24009,429.86684 L 672.84009,429.86684"
       id="path3378" />
    <text
       xml:space="preserve"
       style="font-size:144px;font-style:normal;font-variant:normal;font-weight:normal;font-stretch:normal;fill:#000000;fill-opacity:1;stroke:none;stroke-width:1px;stroke-linecap:butt;stroke-linejoin:miter;stroke-opacity:1;font-family:Loma;-inkscape-font-specification:Loma"
       x="237.97969"
       y="130.07933"
       id="text2403"><tspan
         sodipodi:role="line"
         id="tspan2405"
         x="237.97969"
         y="130.07933"
         style="font-style:normal;font-variant:normal;font-weight:normal;font-stretch:normal;font-family:Loma;-inkscape-font-specification:Loma">PRL</tspan></text>
    <path
       style="font-size:28px;font-style:normal;font-variant:normal;font-weight:normal;font-stretch:normal;fill:#000000;fill-opacity:1;stroke:none;stroke-width:1px;stroke-linecap:butt;stroke-linejoin:miter;stroke-opacity:1;font-family:Loma;-inkscape-font-specification:Loma"
       d="M 242.40512,757.62445 L 242.40512,655.67133 L 281.28793,655.67133 C 287.75663,655.67143 293.38162,656.21049 298.16293,657.28851 C 302.99099,658.31986 306.83473,659.72611 309.69418,661.50726 C 312.60035,663.24173 314.92066,665.44486 316.65512,668.11664 C 318.38941,670.74173 319.56128,673.43703 320.17075,676.20258 C 320.78003,678.9214 321.08472,682.01515 321.08481,685.48383 C 321.08472,706.39013 308.21754,716.84324 282.48325,716.8432 L 255.06137,716.8432 L 255.06137,757.62445 L 242.40512,757.62445 M 282.69418,704.67914 C 286.35038,704.67919 289.56131,704.39794 292.327,703.83539 C 295.09256,703.27294 297.6238,702.31201 299.92075,700.95258 C 302.21755,699.59326 303.97536,697.67139 305.19418,695.18695 C 306.41286,692.65577 307.02223,689.56202 307.02231,685.9057 C 307.02223,682.95265 306.69411,680.46828 306.03793,678.45258 C 305.38161,676.39016 304.1863,674.51516 302.452,672.82758 C 300.76443,671.14016 298.25662,669.89798 294.92856,669.10101 C 291.60037,668.25735 287.4285,667.83548 282.41293,667.83539 L 255.06137,667.83539 L 255.06137,704.67914 L 282.69418,704.67914 M 376.56137,716.8432 L 351.24887,716.8432 L 351.24887,757.62445 L 338.59262,757.62445 L 338.59262,655.67133 L 377.47543,655.67133 C 383.8035,655.67143 389.33475,656.18705 394.06918,657.2182 C 398.85036,658.24955 402.69411,659.63236 405.60043,661.36664 C 408.5066,663.10111 410.85035,665.28079 412.63168,667.9057 C 414.41285,670.53079 415.6316,673.24954 416.28793,676.06195 C 416.94409,678.82765 417.27222,681.96828 417.27231,685.48383 C 417.27222,693.59326 415.09253,700.3667 410.73325,705.80414 C 406.42067,711.24168 400.32692,714.54637 392.452,715.7182 L 425.00668,757.62445 L 405.31918,757.62445 L 376.56137,716.8432 M 378.88168,704.67914 C 382.53788,704.67919 385.74881,704.39794 388.5145,703.83539 C 391.28006,703.27294 393.8113,702.31201 396.10825,700.95258 C 398.40505,699.59326 400.16286,697.67139 401.38168,695.18695 C 402.60036,692.65577 403.20973,689.56202 403.20981,685.9057 C 403.20973,683.7964 403.04567,681.94484 402.71762,680.35101 C 402.4363,678.75734 401.78005,677.14016 400.74887,675.49945 C 399.76442,673.81203 398.38161,672.45266 396.60043,671.42133 C 394.86599,670.39016 392.47537,669.54641 389.42856,668.89008 C 386.38162,668.18704 382.77225,667.83548 378.60043,667.83539 L 351.24887,667.83539 L 351.24887,704.67914 L 378.88168,704.67914 M 436.46762,757.62445 L 436.46762,655.67133 L 449.12387,655.67133 L 449.12387,745.67133 L 500.452,745.67133 L 500.452,757.62445 L 436.46762,757.62445"
       id="text2409" />
    <text
       id="text2421"
       y="174.52605"
       x="561.22852"
       style="font-size:144px;font-style:normal;font-variant:normal;font-weight:normal;font-stretch:normal;fill:#000000;fill-opacity:1;stroke:none;stroke-width:1px;stroke-linecap:butt;stroke-linejoin:miter;stroke-opacity:1;font-family:Loma;-inkscape-font-specification:Loma"
       xml:space="preserve"><tspan
         style="font-style:normal;font-variant:normal;font-weight:bold;font-stretch:normal;font-family:Loma;-inkscape-font-specification:Loma Bold"
         y="174.52605"
         x="561.22852"
         id="tspan2423"
         sodipodi:role="line">PRL</tspan></text>
    <path
       style="font-size:144px;font-style:normal;font-variant:normal;font-weight:bold;font-stretch:normal;fill:none;fill-opacity:1;stroke:#000000;stroke-width:1px;stroke-linecap:butt;stroke-linejoin:miter;stroke-opacity:1;font-family:Ouhod;-inkscape-font-specification:Ouhod Bold"
       d="M 260.43817,407.80692 L 260.43817,445.24692 L 238.83817,445.24692 L 238.83817,340.20692 L 285.15817,340.20692 C 296.14477,340.20702 304.54476,343.00702 310.35817,348.60692 C 316.17142,354.20701 319.07808,362.287 319.07817,372.84692 C 319.07808,383.51365 316.19809,392.0203 310.43817,398.36692 C 304.6781,404.66029 296.9981,407.80696 287.39817,407.80692 L 260.43817,407.80692 M 260.43817,389.72692 L 280.59817,389.72692 C 286.35812,389.72697 290.59811,388.47364 293.31817,385.96692 C 296.03811,383.40698 297.3981,379.46032 297.39817,374.12692 C 297.3981,368.68699 296.03811,364.687 293.31817,362.12692 C 290.59811,359.567 286.35812,358.287 280.59817,358.28692 L 260.43817,358.28692 L 260.43817,389.72692 M 394.82442,427.16692 C 394.82435,424.34027 394.85102,422.12694 394.90442,420.52692 C 394.95769,418.87361 394.98435,417.40695 394.98442,416.12692 C 394.98435,411.75362 393.91769,408.58029 391.78442,406.60692 C 389.70436,404.58029 386.34436,403.56696 381.70442,403.56692 L 356.90442,403.56692 L 356.90442,445.24692 L 335.30442,445.24692 L 335.30442,340.20692 L 391.54442,340.20692 C 395.86435,340.20702 399.73101,340.82036 403.14442,342.04692 C 406.55767,343.27369 409.27767,344.87368 411.30442,346.84692 C 413.331,348.76701 415.011,351.03368 416.34442,353.64692 C 417.67766,356.20701 418.58433,358.71367 419.06442,361.16692 C 419.54433,363.567 419.78433,366.047 419.78442,368.60692 C 419.78433,381.35365 413.891,389.99364 402.10442,394.52692 C 404.02434,395.3803 405.51768,396.04697 406.58442,396.52692 C 407.65101,397.00697 408.77101,397.7003 409.94442,398.60692 C 411.11767,399.51363 411.971,400.28696 412.50442,400.92692 C 413.03767,401.51363 413.59767,402.60696 414.18442,404.20692 C 414.82433,405.80696 415.22433,407.24696 415.38442,408.52692 C 415.59767,409.75362 415.811,411.75362 416.02442,414.52692 C 416.291,417.30028 416.451,419.94028 416.50442,422.44692 C 416.55766,424.90027 416.63766,428.34027 416.74442,432.76692 C 416.74433,435.06026 417.06433,436.84693 417.70442,438.12692 C 418.39766,439.35359 419.59766,440.44692 421.30442,441.40692 L 421.30442,445.24692 L 398.10442,445.24692 C 396.77102,442.79359 395.89102,440.42026 395.46442,438.12692 C 395.03769,435.78026 394.82435,432.12693 394.82442,427.16692 M 398.26442,371.72692 C 398.26435,368.90033 397.91768,366.58033 397.22442,364.76692 C 396.53102,362.90033 395.43769,361.51367 393.94442,360.60692 C 392.45102,359.70034 390.87769,359.087 389.22442,358.76692 C 387.57103,358.447 385.46436,358.287 382.90442,358.28692 L 356.90442,358.28692 L 356.90442,385.64692 L 382.90442,385.64692 C 385.41103,385.64698 387.49103,385.48698 389.14442,385.16692 C 390.85102,384.84698 392.42436,384.23365 393.86442,383.32692 C 395.35769,382.36698 396.45102,380.92698 397.14442,379.00692 C 397.89102,377.08699 398.26435,374.66032 398.26442,371.72692 M 460.96692,340.20692 L 460.96692,427.16692 L 511.20692,427.16692 L 511.20692,445.24692 L 439.36692,445.24692 L 439.36692,340.20692 L 460.96692,340.20692"
       id="text2425" />
    <text
       id="text2433"
       y="288.67328"
       x="223.83757"
       style="font-size:144px;font-style:normal;font-variant:normal;font-weight:bold;font-stretch:normal;fill:#000000;fill-opacity:1;stroke:none;stroke-width:1px;stroke-linecap:butt;stroke-linejoin:miter;stroke-opacity:1;font-family:Ouhod;-inkscape-font-specification:Ouhod Bold"
       xml:space="preserve"><tspan
         style="font-style:normal;font-variant:normal;font-weight:bold;font-stretch:normal;font-family:Ouhod;-inkscape-font-specification:Ouhod Bold"
         y="288.67328"
         x="223.83757"
         id="tspan2435"
         sodipodi:role="line">PRL</tspan></text>
    <rect
       style="fill:none;stroke:#000000;stroke-width:1.05361402;stroke-opacity:1"
       id="rect3272"
       width="121.16469"
       height="115.10378"
       x="28.311077"
       y="169.51567" />
    <text
       xml:space="preserve"
       style="font-size:144px;font-style:normal;font-variant:normal;font-weight:bold;font-stretch:normal;fill:#000000;fill-opacity:1;stroke:none;stroke-width:1px;stroke-linecap:butt;stroke-linejoin:miter;stroke-opacity:1;font-family:Ouhod;-inkscape-font-specification:Ouhod Bold"
       x="159.18781"
       y="540.20123"
       id="text3338"><tspan
         sodipodi:role="line"
         id="tspan3340"
         x="159.18781"
         y="540.20123"
         style="font-style:normal;font-variant:normal;font-weight:bold;font-stretch:normal;font-family:Ouhod;-inkscape-font-specification:Ouhod Bold;font-size:6">PRL</tspan></text>
    <path
       style="font-size:144px;font-style:normal;font-variant:normal;font-weight:bold;font-stretch:normal;fill:#ffffff;fill-opacity:1;stroke:#000000;stroke-width:1px;stroke-linecap:butt;stroke-linejoin:miter;stroke-opacity:1;font-family:Ouhod;-inkscape-font-specification:Ouhod Bold"
       d="M 680.69759,492.82684 C 680.69752,490.00019 680.72419,487.78686 680.77759,486.18684 C 680.83086,484.53353 680.85752,483.06687 680.85759,481.78684 C 680.85752,477.41354 679.79086,474.24021 677.65759,472.26684 C 675.57753,470.24021 672.21753,469.22688 667.57759,469.22684 L 642.77759,469.22684 L 642.77759,510.90684 L 621.17759,510.90684 L 621.17759,405.86684 L 677.41759,405.86684 C 681.73752,405.86694 685.60418,406.48028 689.01759,407.70684 C 692.43084,408.93361 695.15084,410.5336 697.17759,412.50684 C 699.20417,414.42693 700.88417,416.6936 702.21759,419.30684 C 703.55083,421.86693 704.4575,424.37359 704.93759,426.82684 C 705.4175,429.22692 705.6575,431.70692 705.65759,434.26684 C 705.6575,447.01357 699.76417,455.65356 687.97759,460.18684 C 689.89751,461.04022 691.39085,461.70689 692.45759,462.18684 C 693.52418,462.66689 694.64418,463.36022 695.81759,464.26684 C 696.99084,465.17355 697.84417,465.94688 698.37759,466.58684 C 698.91084,467.17355 699.47084,468.26688 700.05759,469.86684 C 700.6975,471.46688 701.0975,472.90688 701.25759,474.18684 C 701.47084,475.41354 701.68417,477.41354 701.89759,480.18684 C 702.16417,482.9602 702.32417,485.6002 702.37759,488.10684 C 702.43083,490.56019 702.51083,494.00019 702.61759,498.42684 C 702.6175,500.72018 702.9375,502.50685 703.57759,503.78684 C 704.27083,505.01351 705.47083,506.10684 707.17759,507.06684 L 707.17759,510.90684 L 683.97759,510.90684 C 682.64419,508.45351 681.76419,506.08018 681.33759,503.78684 C 680.91086,501.44018 680.69752,497.78685 680.69759,492.82684"
       id="path3382" />
    <path
       style="font-size:144px;font-style:normal;font-variant:normal;font-weight:bold;font-stretch:normal;fill:#ffffff;fill-opacity:1;stroke:#000000;stroke-width:1px;stroke-linecap:butt;stroke-linejoin:miter;stroke-opacity:1;font-family:Ouhod;-inkscape-font-specification:Ouhod Bold"
       d="M 610.31134,447.46684 L 610.31134,484.90684 L 588.71134,484.90684 L 588.71134,379.86684 L 635.03134,379.86684 C 646.01794,379.86694 654.41793,382.66694 660.23134,388.26684 C 666.04459,393.86693 668.95125,401.94692 668.95134,412.50684 C 668.95125,423.17357 666.07126,431.68022 660.31134,438.02684 C 654.55127,444.32021 646.87127,447.46688 637.27134,447.46684 L 610.31134,447.46684"
       id="path3384" />
    <path
       style="font-size:144px;font-style:normal;font-variant:normal;font-weight:bold;font-stretch:normal;fill:none;fill-opacity:1;stroke:#000000;stroke-width:1px;stroke-linecap:butt;stroke-linejoin:miter;stroke-opacity:1;font-family:Ouhod;-inkscape-font-specification:Ouhod Bold"
       d="M 386.96692,504.20692 L 386.96692,591.16692 L 437.20692,591.16692 L 437.20692,609.24692 L 365.36692,609.24692 L 365.36692,504.20692 L 386.96692,504.20692"
       id="path3388" />
    <path
       style="font-size:144px;font-style:normal;font-variant:normal;font-weight:bold;font-stretch:normal;fill:#ffffff;fill-opacity:1;stroke:#000000;stroke-width:1px;stroke-linecap:butt;stroke-linejoin:miter;stroke-opacity:1;font-family:Ouhod;-inkscape-font-specification:Ouhod Bold"
       d="M 335.3125 480.21875 L 335.3125 585.25 L 356.90625 585.25 L 356.90625 543.5625 L 381.71875 543.5625 C 386.35869 543.56254 389.70119 544.56711 391.78125 546.59375 C 393.91452 548.56712 394.99994 551.75173 395 556.125 C 394.99993 557.40503 394.95952 558.87794 394.90625 560.53125 C 394.85285 562.13127 394.81242 564.32959 394.8125 567.15625 C 394.81243 572.11626 395.04202 575.77837 395.46875 578.125 C 395.89535 580.41834 396.76034 582.79664 398.09375 585.25 L 421.3125 585.25 L 421.3125 581.40625 C 419.60574 580.44625 418.412 579.3517 417.71875 578.125 C 417.07866 576.84501 416.74991 575.0746 416.75 572.78125 C 416.64324 568.3546 416.55323 564.89087 416.5 562.4375 C 416.44658 559.93086 416.29784 557.30461 416.03125 554.53125 C 415.81783 551.75795 415.58824 549.75795 415.375 548.53125 C 415.21491 547.25129 414.82741 545.8188 414.1875 544.21875 C 413.60075 542.61879 413.03324 541.52419 412.5 540.9375 C 411.96658 540.29754 411.11074 539.50045 409.9375 538.59375 C 408.76409 537.68713 407.66035 537.0113 406.59375 536.53125 C 405.52701 536.0513 404.01366 535.38463 402.09375 534.53125 C 413.88033 529.99797 419.78116 521.34047 419.78125 508.59375 C 419.78116 506.03383 419.54241 503.55632 419.0625 501.15625 C 418.58241 498.703 417.67699 496.21635 416.34375 493.65625 C 415.01033 491.04301 413.33909 488.76384 411.3125 486.84375 C 409.28575 484.87051 406.56951 483.28928 403.15625 482.0625 C 399.74284 480.83594 395.85117 480.21886 391.53125 480.21875 L 335.3125 480.21875 z M 356.90625 498.28125 L 382.90625 498.28125 C 385.46619 498.28133 387.56535 498.46134 389.21875 498.78125 C 390.87202 499.10133 392.44409 499.68716 393.9375 500.59375 C 395.43077 501.5005 396.52534 502.91467 397.21875 504.78125 C 397.91201 506.59466 398.24992 508.89215 398.25 511.71875 C 398.24993 514.65215 397.90286 517.08009 397.15625 519 C 396.46285 520.92006 395.36828 522.35258 393.875 523.3125 C 392.43494 524.21923 390.86286 524.8363 389.15625 525.15625 C 387.50286 525.47631 385.41286 525.65632 382.90625 525.65625 L 356.90625 525.65625 L 356.90625 498.28125 z "
       id="path3394" />
    <path
       style="font-size:144px;font-style:normal;font-variant:normal;font-weight:bold;font-stretch:normal;fill:#ffffff;fill-opacity:1;stroke:#000000;stroke-width:1px;stroke-linecap:butt;stroke-linejoin:miter;stroke-opacity:1;font-family:Ouhod;-inkscape-font-specification:Ouhod Bold"
       d="M 304.84375 454.21875 L 304.84375 559.25 L 326.4375 559.25 L 326.4375 521.8125 L 353.40625 521.8125 C 363.00618 521.81254 370.67743 518.66835 376.4375 512.375 C 382.19742 506.02838 385.09367 497.51048 385.09375 486.84375 C 385.09366 476.28383 382.15699 468.19383 376.34375 462.59375 C 370.53034 456.99385 362.14285 454.21886 351.15625 454.21875 L 304.84375 454.21875 z M 326.4375 472.28125 L 346.59375 472.28125 C 352.3537 472.28133 356.59243 473.56508 359.3125 476.125 C 362.03244 478.68508 363.40619 482.68507 363.40625 488.125 C 363.40618 493.4584 362.03243 497.40881 359.3125 499.96875 C 356.59244 502.47547 352.35369 503.71879 346.59375 503.71875 L 326.4375 503.71875 L 326.4375 472.28125 z "
       id="path3398" />
    <path
       style="font-size:144px;font-style:normal;font-variant:normal;font-weight:bold;font-stretch:normal;fill:#ffffff;fill-opacity:1;stroke:#000000;stroke-width:1px;stroke-linecap:butt;stroke-linejoin:miter;stroke-opacity:1;font-family:Ouhod;-inkscape-font-specification:Ouhod Bold"
       d="M 591.84365,787.63627 L 591.84365,874.59627 L 642.08365,874.59627 L 642.08365,892.67627 L 570.24365,892.67627 L 570.24365,787.63627 L 591.84365,787.63627"
       id="path3430"
       inkscape:export-filename="/home/paul/Desktop/prl.png"
       inkscape:export-xdpi="299.85339"
       inkscape:export-ydpi="299.85339" />
    <path
       style="font-size:144px;font-style:normal;font-variant:normal;font-weight:bold;font-stretch:normal;fill:#ffffff;fill-opacity:1;stroke:#000000;stroke-width:1px;stroke-linecap:butt;stroke-linejoin:miter;stroke-opacity:1;font-family:Ouhod;-inkscape-font-specification:Ouhod Bold"
       d="M 542.18923,763.6481 L 542.18923,868.67935 L 563.78298,868.67935 L 563.78298,826.99185 L 588.59548,826.99185 C 593.23542,826.99189 596.57792,827.99646 598.65798,830.0231 C 600.79125,831.99647 601.87667,835.18108 601.87673,839.55435 C 601.87666,840.83438 601.83625,842.30729 601.78298,843.9606 C 601.72958,845.56062 601.68915,847.75894 601.68923,850.5856 C 601.68916,855.54561 601.91875,859.20772 602.34548,861.55435 C 602.77208,863.84769 603.63707,866.22599 604.97048,868.67935 L 628.18923,868.67935 L 628.18923,864.8356 C 626.48247,863.8756 625.28873,862.78105 624.59548,861.55435 C 623.95539,860.27436 623.62664,858.50395 623.62673,856.2106 C 623.51997,851.78395 623.42996,848.32022 623.37673,845.86685 C 623.32331,843.36021 623.17457,840.73396 622.90798,837.9606 C 622.69456,835.1873 622.46497,833.1873 622.25173,831.9606 C 622.09164,830.68064 621.70414,829.24815 621.06423,827.6481 C 620.47748,826.04814 619.90997,824.95354 619.37673,824.36685 C 618.84331,823.72689 617.98747,822.9298 616.81423,822.0231 C 615.64082,821.11648 614.53708,820.44065 613.47048,819.9606 C 612.40374,819.48065 610.89039,818.81398 608.97048,817.9606 C 620.75706,813.42732 626.65789,804.76982 626.65798,792.0231 C 626.65789,789.46318 626.41914,786.98567 625.93923,784.5856 C 625.45914,782.13235 624.55372,779.6457 623.22048,777.0856 C 621.88706,774.47236 620.21582,772.19319 618.18923,770.2731 C 616.16248,768.29986 613.44624,766.71863 610.03298,765.49185 C 606.61957,764.26529 602.7279,763.64821 598.40798,763.6481 L 542.18923,763.6481 z M 563.78298,781.7106 L 589.78298,781.7106 C 592.34292,781.71068 594.44208,781.89069 596.09548,782.2106 C 597.74875,782.53068 599.32082,783.11651 600.81423,784.0231 C 602.3075,784.92985 603.40207,786.34402 604.09548,788.2106 C 604.78874,790.02401 605.12665,792.3215 605.12673,795.1481 C 605.12666,798.0815 604.77959,800.50944 604.03298,802.42935 C 603.33958,804.34941 602.24501,805.78193 600.75173,806.74185 C 599.31167,807.64858 597.73959,808.26565 596.03298,808.5856 C 594.37959,808.90566 592.28959,809.08567 589.78298,809.0856 L 563.78298,809.0856 L 563.78298,781.7106 z"
       id="path3432"
       inkscape:export-filename="/home/paul/Desktop/prl.png"
       inkscape:export-xdpi="299.85339"
       inkscape:export-ydpi="299.85339" />
    <path
       style="font-size:144px;font-style:normal;font-variant:normal;font-weight:bold;font-stretch:normal;fill:#ffffff;fill-opacity:1;stroke:#000000;stroke-width:1px;stroke-linecap:butt;stroke-linejoin:miter;stroke-opacity:1;font-family:Ouhod;-inkscape-font-specification:Ouhod Bold"
       d="M 513.72048,739.6481 L 513.72048,844.67935 L 535.31423,844.67935 L 535.31423,807.24185 L 562.28298,807.24185 C 571.88291,807.24189 579.55416,804.0977 585.31423,797.80435 C 591.07415,791.45773 593.9704,782.93983 593.97048,772.2731 C 593.97039,761.71318 591.03372,753.62318 585.22048,748.0231 C 579.40707,742.4232 571.01958,739.64821 560.03298,739.6481 L 513.72048,739.6481 z M 535.31423,757.7106 L 555.47048,757.7106 C 561.23043,757.71068 565.46916,758.99443 568.18923,761.55435 C 570.90917,764.11443 572.28292,768.11442 572.28298,773.55435 C 572.28291,778.88775 570.90916,782.83816 568.18923,785.3981 C 565.46917,787.90482 561.23042,789.14814 555.47048,789.1481 L 535.31423,789.1481 L 535.31423,757.7106 z"
       id="path3434"
       inkscape:export-filename="/home/paul/Desktop/prl.png"
       inkscape:export-xdpi="299.85339"
       inkscape:export-ydpi="299.85339" />
    <path
       style="font-size:144px;font-style:normal;font-variant:normal;font-weight:bold;font-stretch:normal;fill:#ffffff;fill-opacity:1;stroke:none;stroke-width:1px;stroke-linecap:butt;stroke-linejoin:miter;stroke-opacity:1;font-family:Ouhod;-inkscape-font-specification:Ouhod Bold"
       d="M 563.78744,809.07667 L 542.19369,810.10792 L 542.19369,782.92042 L 563.78744,782.92042 L 563.78744,809.07667 z"
       id="path3436"
       sodipodi:nodetypes="ccccc"
       inkscape:export-filename="/home/paul/Desktop/prl.png"
       inkscape:export-xdpi="299.85339"
       inkscape:export-ydpi="299.85339" />
    <path
       sodipodi:nodetypes="cccc"
       id="path3438"
       d="M 563.78744,809.07667 L 563.78744,782.92042 M 542.19369,782.92042 L 542.19369,810.10792"
       style="font-size:144px;font-style:normal;font-variant:normal;font-weight:bold;font-stretch:normal;fill:#ffffff;fill-opacity:1;stroke:#000000;stroke-width:1px;stroke-linecap:butt;stroke-linejoin:miter;stroke-opacity:1;font-family:Ouhod;-inkscape-font-specification:Ouhod Bold"
       inkscape:export-filename="/home/paul/Desktop/prl.png"
       inkscape:export-xdpi="299.85339"
       inkscape:export-ydpi="299.85339" />
    <path
       inkscape:export-ydpi="299.85339"
       inkscape:export-xdpi="299.85339"
       inkscape:export-filename="/home/paul/Desktop/prl.png"
       id="path7178"
       d="m 364.70079,841.2077 0,86.96 50.24,0 0,18.08 -71.84,0 0,-105.04 21.6,0"
       style="font-size:144px;font-style:normal;font-variant:normal;font-weight:bold;font-stretch:normal;fill:#ffffff;fill-opacity:1;stroke:#000000;stroke-width:1.7;stroke-linecap:butt;stroke-linejoin:miter;stroke-opacity:1;font-family:Ouhod;-inkscape-font-specification:Ouhod Bold;stroke-miterlimit:4;stroke-dasharray:none" />
    <path
       inkscape:export-ydpi="299.85339"
       inkscape:export-xdpi="299.85339"
       inkscape:export-filename="/home/paul/Desktop/prl.png"
       id="path7180"
       d="m 315.04637,817.21953 0,105.03125 21.59375,0 0,-41.6875 24.8125,0 c 4.63994,4e-5 7.98244,1.00461 10.0625,3.03125 2.13327,1.97337 3.21869,5.15798 3.21875,9.53125 -7e-5,1.28003 -0.0405,2.75294 -0.0937,4.40625 -0.0534,1.60002 -0.0938,3.79834 -0.0937,6.625 -7e-5,4.96001 0.22952,8.62212 0.65625,10.96875 0.4266,2.29334 1.29159,4.67164 2.625,7.125 l 23.21875,0 0,-3.84375 c -1.70676,-0.96 -2.9005,-2.05455 -3.59375,-3.28125 -0.64009,-1.27999 -0.96884,-3.0504 -0.96875,-5.34375 -0.10676,-4.42665 -0.19677,-7.89038 -0.25,-10.34375 -0.0534,-2.50664 -0.20216,-5.13289 -0.46875,-7.90625 -0.21342,-2.7733 -0.44301,-4.7733 -0.65625,-6 -0.16009,-1.27996 -0.54759,-2.71245 -1.1875,-4.3125 -0.58675,-1.59996 -1.15426,-2.69456 -1.6875,-3.28125 -0.53342,-0.63996 -1.38926,-1.43705 -2.5625,-2.34375 -1.17341,-0.90662 -2.27715,-1.58245 -3.34375,-2.0625 -1.06674,-0.47995 -2.58009,-1.14662 -4.5,-2 11.78658,-4.53328 17.68741,-13.19078 17.6875,-25.9375 -9e-5,-2.55992 -0.23884,-5.03743 -0.71875,-7.4375 -0.48009,-2.45325 -1.38551,-4.9399 -2.71875,-7.5 -1.33342,-2.61324 -3.00466,-4.89241 -5.03125,-6.8125 -2.02675,-1.97324 -4.74299,-3.55447 -8.15625,-4.78125 -3.41341,-1.22656 -7.30508,-1.84364 -11.625,-1.84375 l -56.21875,0 z m 21.59375,18.0625 26,0 c 2.55994,8e-5 4.6591,0.18009 6.3125,0.5 1.65327,0.32008 3.22534,0.90591 4.71875,1.8125 1.49327,0.90675 2.58784,2.32092 3.28125,4.1875 0.69326,1.81341 1.03117,4.1109 1.03125,6.9375 -7e-5,2.9334 -0.34714,5.36134 -1.09375,7.28125 -0.6934,1.92006 -1.78797,3.35258 -3.28125,4.3125 -1.44006,0.90673 -3.01214,1.5238 -4.71875,1.84375 -1.65339,0.32006 -3.74339,0.50007 -6.25,0.5 l -26,0 0,-27.375 z"
       style="font-size:144px;font-style:normal;font-variant:normal;font-weight:bold;font-stretch:normal;fill:#ffffff;fill-opacity:1;stroke:#000000;stroke-width:1.7;stroke-linecap:butt;stroke-linejoin:miter;stroke-opacity:1;font-family:Ouhod;-inkscape-font-specification:Ouhod Bold;stroke-miterlimit:4;stroke-dasharray:none" />
    <path
       inkscape:export-ydpi="299.85339"
       inkscape:export-xdpi="299.85339"
       inkscape:export-filename="/home/paul/Desktop/prl.png"
       id="path7182"
       d="m 286.57762,793.21953 0,105.03125 21.59375,0 0,-37.4375 26.96875,0 c 9.59993,4e-5 17.27118,-3.14415 23.03125,-9.4375 5.75992,-6.34662 8.65617,-14.86452 8.65625,-25.53125 -9e-5,-10.55992 -2.93676,-18.64992 -8.75,-24.25 -5.81341,-5.5999 -14.2009,-8.37489 -25.1875,-8.375 l -46.3125,0 z m 21.59375,18.0625 20.15625,0 c 5.75995,8e-5 9.99868,1.28383 12.71875,3.84375 2.71994,2.56008 4.09369,6.56007 4.09375,12 -7e-5,5.3334 -1.37382,9.28381 -4.09375,11.84375 -2.72006,2.50672 -6.95881,3.75004 -12.71875,3.75 l -20.15625,0 0,-31.4375 z"
       style="font-size:144px;font-style:normal;font-variant:normal;font-weight:bold;font-stretch:normal;fill:#ffffff;fill-opacity:1;stroke:#000000;stroke-width:1.7;stroke-linecap:butt;stroke-linejoin:miter;stroke-opacity:1;font-family:Ouhod;-inkscape-font-specification:Ouhod Bold;stroke-miterlimit:4;stroke-dasharray:none" />
    <path
       inkscape:export-ydpi="299.85339"
       inkscape:export-xdpi="299.85339"
       inkscape:export-filename="/home/paul/Desktop/prl.png"
       sodipodi:nodetypes="ccccc"
       id="path7184"
       d="m 336.64458,862.6481 -21.59375,1.03125 0,-27.1875 21.59375,0 0,26.15625 z"
       style="font-size:144px;font-style:normal;font-variant:normal;font-weight:bold;font-stretch:normal;fill:#ffffff;fill-opacity:1;stroke:none;font-family:Ouhod;-inkscape-font-specification:Ouhod Bold;stroke-width:1.7;stroke-miterlimit:4;stroke-dasharray:none" />
    <path
       inkscape:export-ydpi="299.85339"
       inkscape:export-xdpi="299.85339"
       inkscape:export-filename="/home/paul/Desktop/prl.png"
       style="font-size:144px;font-style:normal;font-variant:normal;font-weight:bold;font-stretch:normal;fill:#ffffff;fill-opacity:1;stroke:#000000;stroke-width:1.7;stroke-linecap:butt;stroke-linejoin:miter;stroke-opacity:1;font-family:Ouhod;-inkscape-font-specification:Ouhod Bold;stroke-miterlimit:4;stroke-dasharray:none"
       d="m 336.64458,862.6481 0,-26.15625 m -21.59375,0 0,27.1875"
       id="path7186"
       sodipodi:nodetypes="cccc" />
  </g>
</svg>
